<mxfile host="app.diagrams.net" modified="2021-10-13T09:33:40.832Z" agent="5.0 (Windows NT 10.0; Win64; x64) AppleWebKit/537.36 (KHTML, like Gecko) Chrome/94.0.4606.81 Safari/537.36" etag="JKcrrYicCOGNgYvRkP8Q" version="15.5.2" type="github">
  <diagram id="FonD3yZjuFLouaIDfz1e" name="Page-1">
    <mxGraphModel dx="2076" dy="1112" grid="1" gridSize="10" guides="1" tooltips="1" connect="1" arrows="1" fold="1" page="1" pageScale="1" pageWidth="1100" pageHeight="850" math="0" shadow="0">
      <root>
        <mxCell id="0" />
        <mxCell id="1" parent="0" />
      </root>
    </mxGraphModel>
  </diagram>
</mxfile>
